<?xml version="1.0" encoding="UTF-8" standalone="no"?>
<svg xmlns:rdf="http://www.w3.org/1999/02/22-rdf-syntax-ns#" xmlns="http://www.w3.org/2000/svg" height="225.78mm" width="395.11mm" version="1.1" xmlns:cc="http://creativecommons.org/ns#" xmlns:dc="http://purl.org/dc/elements/1.1/" viewBox="0 0 1400 800.0001">
<defs>
<pattern id="a" width="200.00005" patternUnits="userSpaceOnUse" patternTransform="translate(-380 422.36)" height="200.00006">
<g transform="translate(380 -422.36)">
<rect height="200" width="200" y="422.36" x="-380" fill="#0099FF"/>
<path d="m-380 522.36 100-100 100 100-100 100z" fill-rule="evenodd" fill="#adf"/>
<path d="m-300 442.36 20 20 20-20h-40zm20 20h-40l40 40 40-40h-40zm0 40-20 20 20 20 20-20-20-20zm20 20 40 40v-40-40l-40 40zm40 0 20 20v-40l-20 20zm-60 20-40 40h40 40l-40-40zm0 40-20 20h40l-20-20zm-20-60-40-40v40 40l40-40zm-40 0-20-20v40l20-20z" fill-rule="evenodd" fill="#006fb9"/>
<path d="m0 600v20l20-20h-20zm20 0 40 40v-40h-40zm40 0 20 20v-20h-20zm-60 20v40h40l-40-40zm0 40v20h20l-20-20zm120-60v20l20-20h-20zm20 0v40l40-40h-40zm40 0 20 20v-20h-20zm20 20-40 40h40v-40zm0 40-20 20h20v-20zm-200 60v20l20-20h-20zm0 20v40l40-40h-40zm0 40v20h20l-20-20zm20 20h40v-40l-40 40zm40 0h20v-20l-20 20zm120-80 20 20v-20h-20zm20 20h-40l40 40v-40zm0 40-20 20h20v-20zm-20 20-40-40v40h40zm-40 0-20-20v20h20z" fill-rule="evenodd" transform="translate(-380 -177.64)" fill="#006fb9"/>
</g>
</pattern>
</defs>
<g transform="translate(380 177.64)">
<rect height="800" width="1400" y="-177.64" x="-380" fill="url(#a)"/>
</g>
</svg>
