<?xml version="1.0" encoding="UTF-8" standalone="no"?>
<svg xmlns:rdf="http://www.w3.org/1999/02/22-rdf-syntax-ns#" xmlns="http://www.w3.org/2000/svg" viewBox="0 0 989.99998 700" height="197.56mm" width="279.4mm" version="1.1" xmlns:cc="http://creativecommons.org/ns#" xmlns:xlink="http://www.w3.org/1999/xlink" xmlns:dc="http://purl.org/dc/elements/1.1/">
<defs>
<clipPath id="g" clipPathUnits="userSpaceOnUse">
<rect opacity="0.452" ry="0" height="140" width="110" y="912.36" x=".00012078" fill="#0ff"/>
</clipPath>
<linearGradient id="f" y2="500.45" gradientUnits="userSpaceOnUse" x2="-55.957" gradientTransform="translate(-573.04 168.72)" y1="500.45" x1="-136.3">
<stop stop-color="#adf" offset="0"/>
<stop stop-color="#adf" stop-opacity="0" offset="1"/>
</linearGradient>
<linearGradient id="e" y2="500.45" gradientUnits="userSpaceOnUse" x2="-55.957" gradientTransform="translate(-484.02 257.74)" y1="500.45" x1="-136.3">
<stop stop-color="#adf" offset="0"/>
<stop stop-color="#adf" stop-opacity="0" offset="1"/>
</linearGradient>
<linearGradient id="d" y2="500.45" gradientUnits="userSpaceOnUse" x2="-55.957" gradientTransform="translate(-484.02 79.699)" y1="500.45" x1="-136.3">
<stop stop-color="#adf" offset="0"/>
<stop stop-color="#adf" stop-opacity="0" offset="1"/>
</linearGradient>
<linearGradient id="c" y2="500.45" gradientUnits="userSpaceOnUse" x2="-55.957" gradientTransform="translate(-395 168.72)" y1="500.45" x1="-136.3">
<stop stop-color="#adf" offset="0"/>
<stop stop-color="#adf" stop-opacity="0" offset="1"/>
</linearGradient>
<linearGradient id="b" y2="500.45" gradientUnits="userSpaceOnUse" x2="-55.957" gradientTransform="translate(-484.02 168.72)" y1="500.45" x1="-136.3">
<stop stop-color="#adf" offset="0"/>
<stop stop-color="#adf" stop-opacity="0" offset="1"/>
</linearGradient>
<pattern id="a" width="110" patternUnits="userSpaceOnUse" patternTransform="translate(.00012078 912.36)" height="140">
<g transform="translate(-.00012078 -912.36)" clip-path="url(#g)">
<rect height="140" width="110" y="912.36" x=".000029223" fill="#006fb9"/>
<rect ry="9.4505" transform="matrix(.61782 -.78632 .61782 .78632 0 0)" height="80.343" width="80.343" y="629" x="-709.34" fill="url(#f)"/>
<rect transform="matrix(.61782 -.78632 .61782 .78632 0 0)" ry="9.4505" height="80.343" width="80.343" y="718.02" x="-620.32" fill="url(#e)"/>
<rect transform="matrix(.61782 -.78632 .61782 .78632 0 0)" ry="9.4505" height="80.343" width="80.343" y="539.98" x="-620.32" fill="url(#d)"/>
<rect transform="matrix(.61782 -.78632 .61782 .78632 0 0)" ry="9.4505" height="80.343" width="80.343" y="629" x="-531.3" fill="url(#c)"/>
<rect transform="matrix(.61782 -.78632 .61782 .78632 0 0)" ry="9.4505" height="80.343" width="80.343" y="629" x="-620.32" fill="url(#b)"/>
</g>
</pattern>
</defs>
<g transform="translate(.0000012949 -352.36)">
<rect height="700" width="990" y="352.36" x="-.0000012949" fill="url(#a)"/>
</g>
</svg>
