<?xml version="1.0" encoding="UTF-8" standalone="no"?>
<!-- Created with Inkscape (http://www.inkscape.org/) -->
<svg xmlns:dc="http://purl.org/dc/elements/1.1/" xmlns:cc="http://creativecommons.org/ns#" xmlns:rdf="http://www.w3.org/1999/02/22-rdf-syntax-ns#" xmlns:svg="http://www.w3.org/2000/svg" xmlns="http://www.w3.org/2000/svg" xmlns:xlink="http://www.w3.org/1999/xlink" version="1.1" width="498" height="635" id="svg2">
  <defs id="defs4">
    <clipPath id="clipPath3997">
      <rect width="499.61499" height="636.93597" x="-39.015884" y="-124.21844" id="rect3999"/>
    </clipPath>
  </defs>
  <g id="layer1">
    <g transform="translate(39.015884,124.21844)" clip-path="url(#clipPath3997)" id="g3990">
      <use transform="translate(249.80736,318.46805)" id="use3919" x="0" y="0" width="744.09448" height="1052.3622" xlink:href="#path2996"/>
      <use transform="translate(-499.61471,0)" id="use3921" x="0" y="0" width="744.09448" height="1052.3622" xlink:href="#use3919"/>
      <use transform="translate(249.80736,-318.46806)" id="use3952" x="0" y="0" width="744.09448" height="1052.3622" xlink:href="#path2996"/>
      <use transform="translate(-499.61471,-636.93611)" id="use3954" x="0" y="0" width="744.09448" height="1052.3622" xlink:href="#use3919"/>
      <path d="m 210.63529,1.0470978 c -0.29917,0.102837 -1.05336,0.644624 -2.25001,3.1875 -1.59553,3.390502 -4.17835,12.3686452 -5.375,14.5625002 -1.19665,2.193854 -2.39252,2.59375 -4.1875,2.59375 -1.79497,0 -2.98806,0.181146 -3.1875,2.375 -0.19944,2.193854 -0.22612,4.806146 -0.625,7 -0.39888,2.193855 -1.19588,2.391515 -4.1875,1.59375 -2.99162,-0.797765 -14.5508,-3.393295 -21.53125,-1 -6.98044,2.393296 -14.14253,7.974337 -15.9375,9.96875 -1.79497,1.994413 -1.80412,2.995426 1.1875,3.59375 2.99162,0.598323 9.16107,0.0056 15.34375,2 6.18268,1.994413 15.57926,6.171231 21.5625,13.75 5.98324,7.578771 10.55336,14.165641 11.75,19.750001 1.19665,5.58435 0.99822,8.17378 2.59375,9.96875 1.59553,1.79498 1.01118,2 5.00001,2 3.98882,0 3.40447,-0.20502 5,-2 1.59553,-1.79497 1.3971,-4.3844 2.59375,-9.96875 1.19664,-5.58436 5.76676,-12.17123 11.75,-19.750001 5.98324,-7.578769 15.37982,-11.755587 21.5625,-13.75 6.18268,-1.9944 12.35213,-1.401677 15.34375,-2 2.99162,-0.598324 2.98247,-1.599337 1.1875,-3.59375 -1.79497,-1.994413 -8.95706,-7.575454 -15.9375,-9.96875 -6.98045,-2.393295 -18.53963,0.202235 -21.53125,1 -2.99162,0.797765 -3.78862,0.600105 -4.1875,-1.59375 -0.39888,-2.193854 -0.42556,-4.806146 -0.625,-7 -0.19944,-2.193854 -1.39253,-2.375 -3.1875,-2.375 -1.79498,0 -2.99085,-0.399896 -4.1875,-2.59375 -1.19665,-2.193855 -3.77947,-11.1719982 -5.375,-14.5625002 -1.19665,-2.542876 -1.95084,-3.084663 -2.25,-3.1875 -0.0998,-0.03428 -0.15625,0 -0.15625,0 0,0 -0.0565,-0.03428 -0.15625,0 z M 135.51028,57.265848 c -2.97336,0.05405 -5.06477,0.281599 -5.875,0.40625 -2.59273,0.398882 -2.6029,2.411836 -1.40625,4.40625 1.19664,1.994411 2.19766,4.784041 3.59375,5.781251 1.39609,0.9972 6.172,0.99542 9.5625,1.59375 3.3905,0.59832 14.95325,3.797 18.34375,7.1875 3.3905,3.39051 14.17556,10.95807 14.375,20.53125 0.19944,9.573181 -0.0102,14.145321 -1.40625,16.937501 -1.39608,2.79218 1.20782,5.18851 4,7.78125 2.79218,2.59274 8.37155,6.41668 9.96875,7.375 2.99161,1.79497 3.79878,2.4126 5.59375,0.21875 1.79497,-2.19386 4.97611,-9.5663 5.375,-13.15625 0.39888,-3.58994 -0.99288,-21.935961 -7.375,-30.312501 -6.38212,-8.37653 -11.16232,-15.97636 -26.71875,-23.156251 -10.69504,-4.936169 -21.48986,-5.712656 -28.03125,-5.59375 z m 147.90626,0 c -6.59464,0.136453 -16.01684,1.274602 -25.375,5.59375 -15.55643,7.179891 -20.33663,14.779721 -26.71875,23.156251 -6.38212,8.37654 -7.77388,26.722561 -7.375,30.312501 0.39889,3.58995 3.58003,10.96239 5.375,13.15625 1.79497,2.19385 2.60214,1.57622 5.59375,-0.21875 1.5972,-0.95832 7.17657,-4.78226 9.96875,-7.375 2.79218,-2.59274 5.39608,-4.98907 4,-7.78125 -1.39605,-2.79218 -1.60569,-7.36432 -1.40625,-16.937501 0.19944,-9.57318 10.9845,-17.14074 14.375,-20.53125 3.3905,-3.3905 14.95325,-6.58918 18.34375,-7.1875 3.3905,-0.59833 8.16641,-0.59655 9.5625,-1.59375 1.39609,-0.99721 2.39711,-3.78684 3.59375,-5.781251 1.19665,-1.994414 1.18648,-4.007368 -1.40625,-4.40625 -0.81023,-0.124651 -2.90164,-0.3522 -5.875,-0.40625 -0.81767,-0.01486 -1.71416,-0.01949 -2.65625,0 z m -168.15626,2.21875 c -2.39329,0 -8.58562,3.19029 -12.375,4.1875 -3.789381,0.997211 -17.537849,8.977131 -22.124999,11.968751 -4.58715,2.99162 -15.551572,11.97256 -18.34375,15.5625 -2.792178,3.58994 -5.629121,6.41149 -7,8.15625 -2.193854,2.792181 -0.396089,5.397111 1,6.593751 1.396089,1.19665 3.390748,1.20401 6.78125,0.40625 3.390502,-0.79777 5.998221,-1.01016 7.59375,-2.40625 1.59553,-1.39609 4.18851,-5.001011 6.78125,-7.593751 2.59273,-2.59273 11.37703,-11.15726 16.5625,-13.75 5.185478,-2.59273 14.933939,-8.57723 18.124999,-9.375 3.19106,-0.79776 6.79421,-1.59654 9.1875,-2.59375 2.3933,-0.9972 1.80691,-2.80157 -0.1875,-5.59375 -1.99441,-2.792181 -3.6067,-5.562501 -6,-5.562501 z m 191.06251,0 c -2.3933,0 -4.00559,2.77032 -6,5.562501 -1.99441,2.79218 -2.5808,4.59655 -0.1875,5.59375 2.39329,0.99721 5.99644,1.79599 9.1875,2.59375 3.19106,0.79777 12.93952,6.78227 18.125,9.375 5.18547,2.59274 13.96977,11.15727 16.5625,13.75 2.59274,2.59274 5.18572,6.197661 6.78125,7.593751 1.59553,1.39609 4.20325,1.60848 7.59375,2.40625 3.3905,0.79776 5.38516,0.7904 6.78125,-0.40625 1.39609,-1.19664 3.19385,-3.80157 1,-6.593751 -1.37088,-1.74476 -4.20782,-4.56631 -7,-8.15625 -2.79218,-3.58994 -13.7566,-12.57088 -18.34375,-15.5625 -4.58715,-2.99162 -18.33562,-10.97154 -22.125,-11.968751 -3.78938,-0.99721 -9.98171,-4.1875 -12.375,-4.1875 z M 136.47903,76.859599 c -1.5917,0.0319 -3.04055,0.1927 -4.25,0.5625 -2.83735,0.86755 -1.21317,2.40167 0.78125,3 1.99441,0.59832 13.76118,2.58461 17.75,3.78125 3.98883,1.19665 8.76296,3.80716 11.15625,8.59375 2.3933,4.78659 3.80691,9.566311 1.8125,13.156251 -1.99442,3.58995 -2.39888,4.37042 -2,4.96875 0.39889,0.59832 1.80335,1.02109 3,-0.375 1.19665,-1.39608 5.1875,-4.1941 5.1875,-8.78125 0,-4.587151 -1.39811,-10.792421 -5.1875,-14.781251 -3.78938,-3.98882 -9.18216,-6.9596 -13.96875,-8.15625 -3.58994,-0.89749 -9.50616,-2.06458 -14.28125,-1.96875 z m 148.62501,0 c -4.77509,-0.0958 -10.69131,1.07126 -14.28125,1.96875 -4.78659,1.19665 -10.17937,4.16743 -13.96875,8.15625 -3.78939,3.98883 -5.1875,10.1941 -5.1875,14.781251 0,4.58715 3.99085,7.38517 5.1875,8.78125 1.19665,1.39609 2.60111,0.97332 3,0.375 0.39888,-0.59833 -0.006,-1.3788 -2,-4.96875 -1.99441,-3.58994 -0.5808,-8.369661 1.8125,-13.156251 2.39329,-4.78659 7.16742,-7.3971 11.15625,-8.59375 3.98882,-1.19664 15.75559,-3.18293 17.75,-3.78125 1.99442,-0.59833 3.6186,-2.13245 0.78125,-3 -1.20945,-0.3698 -2.6583,-0.5306 -4.25,-0.5625 z m -164.28126,2.625 c -0.18166,0.0197 -0.35946,0.068 -0.5625,0.125 -19.56814,5.49288 -28.929369,14.36686 -32.718749,18.15625 -2.39329,2.393301 -0.22479,5.741531 2.40625,3.593751 9.772618,-7.977651 19.926559,-13.256091 30.687499,-17.343751 3.27903,-1.24557 3.01566,-4.38078 0.71875,-4.53125 -0.16406,-0.0108 -0.34959,-0.0197 -0.53125,0 z m 179.40626,0 c -2.29691,0.15047 -2.56028,3.28568 0.71875,4.53125 10.76094,4.08766 20.91488,9.3661 30.6875,17.343751 2.63104,2.14778 4.79954,-1.20045 2.40625,-3.593751 -3.78938,-3.78939 -13.15061,-12.66337 -32.71875,-18.15625 -0.40608,-0.114 -0.76562,-0.1465 -1.09375,-0.125 z m -155.34376,17 c -1.19665,0 -2.50279,0.29599 -3.5,1.09375 -1.99441,1.59553 -5.18114,5.375001 -7.375,5.375001 -2.19385,0 -3.7942,1.40447 -6.1875,3 -2.39329,1.59554 -5.59095,4.76575 -4.59375,8.15625 0.99721,3.3905 0.40346,5.79421 -0.59375,8.1875 -0.99721,2.3933 -2.19208,6.57824 -1.59375,9.96875 0.59832,3.3905 3.9817,6.38059 6.375,8.375 2.3933,1.99441 5.79599,0.61585 6.59375,1.8125 0.79777,1.19665 3.0038,3.38338 6.59375,6.375 3.58994,2.99162 5.97255,3.1847 9.5625,2.1875 3.58994,-0.99721 4.18115,-1.78125 6.375,-1.78125 2.19385,0 2.40726,1.77947 5,3.375 2.59274,1.59553 8.96798,2.38872 13.15625,0.59375 4.18826,-1.79497 7.56809,-5.9624 9.5625,-8.15625 1.99441,-2.19386 1.81149,-5.39711 -0.78125,-6.59375 -2.59273,-1.19665 -4.0066,-2.00381 -8.59375,-5.59375 -2.68641,-2.10241 -2.97154,-2.19588 -3.96875,-5.1875 -0.9972,-2.99162 -3.3999,-5.37957 -5.59375,-4.78125 -2.19386,0.59833 -7.98908,1.40625 -10.78125,1.40625 -2.79218,0 -6.57266,-1.6095 -7.96875,-5 -1.39608,-3.3905 -0.19665,-9.56809 1,-11.5625 1.19665,-1.99442 4.19944,-3.99365 4,-6.1875 -0.19944,-2.193861 -2.61585,-3.577241 -3.8125,-4.375001 -0.59832,-0.39889 -1.67835,-0.6875 -2.875,-0.6875 z m 131.81251,0 c -1.19665,0 -2.27668,0.28861 -2.875,0.6875 -1.19665,0.79776 -3.61306,2.18114 -3.8125,4.375001 -0.19944,2.19385 2.80335,4.19308 4,6.1875 1.19665,1.99441 2.39608,8.172 1,11.5625 -1.39609,3.3905 -5.17657,5 -7.96875,5 -2.79217,0 -8.58739,-0.80792 -10.78125,-1.40625 -2.19385,-0.59832 -4.59655,1.78963 -5.59375,4.78125 -0.99721,2.99162 -1.28234,3.08509 -3.96875,5.1875 -4.58715,3.58994 -6.00102,4.3971 -8.59375,5.59375 -2.59274,1.19664 -2.77566,4.39989 -0.78125,6.59375 1.99441,2.19385 5.37424,6.36128 9.5625,8.15625 4.18827,1.79497 10.56351,1.00178 13.15625,-0.59375 2.59274,-1.59553 2.80615,-3.375 5,-3.375 2.19385,0 2.78506,0.78404 6.375,1.78125 3.58995,0.9972 5.97256,0.80412 9.5625,-2.1875 3.58995,-2.99162 5.79598,-5.17835 6.59375,-6.375 0.79776,-1.19665 4.20045,0.18191 6.59375,-1.8125 2.3933,-1.99441 5.77668,-4.9845 6.375,-8.375 0.59833,-3.39051 -0.59654,-7.57545 -1.59375,-9.96875 -0.99721,-2.39329 -1.59096,-4.797 -0.59375,-8.1875 0.9972,-3.3905 -2.20046,-6.56071 -4.59375,-8.15625 -2.3933,-1.59553 -3.99365,-3 -6.1875,-3 -2.19386,0 -5.38059,-3.779471 -7.375,-5.375001 -0.99721,-0.79776 -2.30335,-1.09375 -3.5,-1.09375 z M 210.79154,106.5471 c -1.92761,0 -3.50001,1.5724 -3.50001,3.5 0,1.9276 1.5724,3.46875 3.50001,3.46875 1.9276,0 3.5,-1.54115 3.5,-3.46875 0,-1.9276 -1.5724,-3.5 -3.5,-3.5 z m -162.500009,3.21875 c -0.56648,-0.006 -1.101467,0.42818 -1.625,1.5625 -1.196647,2.59274 -9.595776,13.96009 -14.78125,28.71875 -5.185473,14.75865 -5.769308,33.32367 -5.96875,37.3125 -0.199441,3.98883 0.596543,3.96875 1.59375,3.96875 0.997206,0 2.397102,-0.40524 3.59375,2.1875 1.196648,2.59274 2.981705,7.20325 5.375,10.59375 2.393296,3.3905 4.1875,-1.1941 4.1875,-5.78125 0,0 1.990852,-14.98272 3.1875,-19.96875 1.196648,-4.98603 4.203247,-15.15192 7.59375,-22.53125 3.390502,-7.37932 7.376014,-8.16463 9.96875,-11.15625 2.592737,-2.99162 8.578246,-3.1875 11.96875,-3.1875 3.3905,0 6.57266,4.56351 7.96875,7.15625 1.39609,2.59273 -0.0018,8.59197 1.59375,10.1875 1.59553,1.59553 3.6067,1.19665 6,0 2.3933,-1.19664 6.38237,-8.38795 6.78125,-10.78125 0.39889,-2.39329 1.38795,-2.59375 3.781248,-2.59375 2.393291,0 2.199441,-3.19308 2.000001,-5.1875 -0.19944,-1.99441 -3.209601,-3.97433 -4.406249,-5.96875 -1.19665,-1.99441 -3.38796,-2.3971 -5.78125,-3.59375 -2.3933,-1.19665 -2.59375,-2.57724 -2.59375,-3.375 0,-0.79777 0.80869,-4.40625 -2.78125,-4.40625 -3.58994,0 -6.79242,-0.19944 -10.78125,0 -3.98883,0.19944 -14.736278,4.77947 -16.53125,6.375 -1.794971,1.59553 -2.615853,1.01372 -3.8125,-0.78125 -1.196648,-1.79498 -3.178352,-5.20503 -4.375,-7 -0.673114,-1.00967 -1.427919,-1.74211 -2.15625,-1.75 z m 325.000009,0 c -0.72833,0.008 -1.48314,0.74033 -2.15625,1.75 -1.19665,1.79497 -3.17835,5.20502 -4.375,7 -1.19665,1.79497 -2.01753,2.37678 -3.8125,0.78125 -1.79497,-1.59553 -12.54242,-6.17556 -16.53125,-6.375 -3.98883,-0.19944 -7.19131,0 -10.78125,0 -3.58994,0 -2.78125,3.60848 -2.78125,4.40625 0,0.79776 -0.20045,2.17835 -2.59375,3.375 -2.39329,1.19665 -4.5846,1.59934 -5.78125,3.59375 -1.19665,1.99442 -4.20681,3.97434 -4.40625,5.96875 -0.19944,1.99442 -0.39329,5.1875 2,5.1875 2.3933,0 3.38236,0.20046 3.78125,2.59375 0.39888,2.3933 4.38795,9.58461 6.78125,10.78125 2.3933,1.19665 4.40447,1.59553 6,0 1.59575,-1.59553 0.19766,-7.59477 1.59375,-10.1875 1.39609,-2.59274 4.57825,-7.15625 7.96875,-7.15625 3.3905,0 9.37601,0.19588 11.96875,3.1875 2.59273,2.99162 6.57825,3.77693 9.96875,11.15625 3.3905,7.37933 6.3971,17.54522 7.59375,22.53125 1.19665,4.98603 3.1875,19.96875 3.1875,19.96875 0,4.58715 1.7942,9.17175 4.1875,5.78125 2.39329,-3.3905 4.17835,-8.00101 5.375,-10.59375 1.19665,-2.59274 2.59654,-2.1875 3.59375,-2.1875 0.99721,0 1.79319,0.0201 1.59375,-3.96875 -0.19944,-3.98883 -0.78328,-22.55385 -5.96875,-37.3125 -5.18548,-14.75866 -13.5846,-26.12601 -14.78125,-28.71875 -0.52353,-1.13432 -1.05852,-1.5685 -1.625,-1.5625 z m -162.5,18.125 c -3.96535,0 -7.18751,3.15223 -7.18751,7.0625 0,3.91027 3.22216,7.09375 7.18751,7.09375 3.96534,0 7.1875,-3.18348 7.1875,-7.09375 0,-3.91027 -3.22216,-7.0625 -7.1875,-7.0625 z m -146.187509,13.5 c -0.861979,-0.022 -1.81714,0.19548 -2.40625,0.65625 -7.50091,5.86683 -8.204917,15.07749 -10.75,23.53125 -1.145574,3.80514 2.572662,3.79854 3.96875,-1.1875 2.275186,-7.60379 6.826659,-14.09968 10.96875,-20.75 0.872556,-1.49581 -0.344618,-2.21338 -1.78125,-2.25 z m 292.375009,0 c -1.43663,0.0366 -2.65381,0.75419 -1.78125,2.25 4.14209,6.65032 8.69356,13.14621 10.96875,20.75 1.39609,4.98604 5.11432,4.99264 3.96875,1.1875 -2.54508,-8.45376 -3.24909,-17.66442 -10.75,-23.53125 -0.58911,-0.46077 -1.54427,-0.67825 -2.40625,-0.65625 z m -287.500009,14.8125 c -2.258042,0 -4.0625,1.83571 -4.0625,4.09375 0,2.25804 1.804458,4.09375 4.0625,4.09375 2.25804,0 4.09375,-1.83571 4.09375,-4.09375 0,-2.25804 -1.83571,-4.09375 -4.09375,-4.09375 z m 282.625009,0 c -2.25804,0 -4.09375,1.83571 -4.09375,4.09375 0,2.25804 1.83571,4.09375 4.09375,4.09375 2.25804,0 4.0625,-1.83571 4.0625,-4.09375 0,-2.25804 -1.80446,-4.09375 -4.0625,-4.09375 z m -141.3125,1.4375 c -1.70373,0.0973 -4.00549,3.65486 -5.65626,6.65625 -1.65077,3.0014 -7.49965,12.63014 -8.25,15.03125 -0.75035,2.40112 -1.07451,2.09375 -2.125,2.09375 l -3.28125,0 c -1.35063,0 -1.66861,-0.60133 -1.96875,2.25 -0.30014,2.85132 1.66826,12.88527 2.71875,17.6875 1.05048,4.80224 6.13083,16.22423 7.03125,17.875 0.90042,1.65077 0.62535,4.79909 -0.125,6.75 -0.75035,1.95091 -4.66826,10.79291 -5.71875,12.59375 -1.05048,1.80083 -1.03194,2.56145 0.46875,4.8125 1.5007,2.25105 6.14903,8.85507 8.25,11.40625 2.10098,2.55119 4.20569,12.44917 5.40625,14.25 1.20055,1.80084 3.25001,2.5625 3.25001,2.5625 0,0 2.04945,-0.76166 3.25,-2.5625 1.20056,-1.80083 3.30527,-11.69881 5.40625,-14.25 2.10097,-2.55118 6.7493,-9.1552 8.25,-11.40625 1.50069,-2.25105 1.51923,-3.01167 0.46875,-4.8125 -1.05049,-1.80084 -4.9684,-10.64284 -5.71875,-12.59375 -0.75035,-1.95091 -1.02542,-5.09923 -0.125,-6.75 0.90042,-1.65077 5.98077,-13.07276 7.03125,-17.875 1.05049,-4.80223 3.01889,-14.83618 2.71875,-17.6875 -0.30014,-2.85133 -0.61812,-2.25 -1.96875,-2.25 l -3.28125,0 c -1.05049,0 -1.37465,0.30737 -2.125,-2.09375 -0.75035,-2.40111 -6.59923,-12.02985 -8.25,-15.03125 -1.65077,-3.00139 -3.95253,-6.55895 -5.65625,-6.65625 z m -79.78126,0.0625 c -6.54201,0.0556 -12.75554,4.80073 -15.34375,3.28125 -6.05901,-3.55712 -12.93603,-2.54204 -16.968751,1.8125 -2.206028,2.38208 -2.747008,2.82287 0.59375,4.78125 2.463481,1.44411 4.786841,1.18114 6.781251,3.375 1.99441,2.19385 4.60848,4.98907 5.40625,7.78125 0.79776,2.79218 1.79141,3.60391 3.1875,5 1.39609,1.39609 4.96875,3.98628 4.96875,5.78125 0,1.79497 -0.17657,8.76753 -2.96875,10.5625 -2.79218,1.79497 -4.18928,3.98628 -2.59375,5.78125 1.59553,1.79498 4.98171,3.78125 7.375,3.78125 2.3933,0 5.25501,-1.4627 6.78125,-1.96875 3.07831,-1.02067 8.52104,0.52309 12.375,-2.59375 2.42234,-1.95903 5.76931,-6.20045 5.96875,-8.59375 0.19945,-2.39329 1.18572,-1.7721 2.78125,-2.96875 1.59553,-1.19664 3.98806,-4.1913 4.1875,-7.78125 0.19944,-3.58994 0.80412,-6.40269 -2.1875,-9.59375 -2.99162,-3.19106 -4.7749,-4.1903 -6.96875,-5.1875 -2.19385,-0.99721 -0.99086,-1.37601 -2.1875,-3.96875 -1.19665,-2.59274 -4.05911,-7.97723 -8.375,-8.96875 -0.93881,-0.21568 -1.87793,-0.32044 -2.8125,-0.3125 z m 159.56251,0 c -0.93457,-0.008 -1.87369,0.0968 -2.8125,0.3125 -4.31589,0.99152 -7.17835,6.37601 -8.375,8.96875 -1.19664,2.59274 0.006,2.97154 -2.1875,3.96875 -2.19385,0.9972 -3.97713,1.99644 -6.96875,5.1875 -2.99162,3.19106 -2.38694,6.00381 -2.1875,9.59375 0.19944,3.58995 2.59197,6.58461 4.1875,7.78125 1.59553,1.19665 2.5818,0.57546 2.78125,2.96875 0.19944,2.3933 3.54641,6.63472 5.96875,8.59375 3.85396,3.11684 9.29669,1.57308 12.375,2.59375 1.52624,0.50605 4.38795,1.96875 6.78125,1.96875 2.39329,0 5.77947,-1.98627 7.375,-3.78125 1.59553,-1.79497 0.19843,-3.98628 -2.59375,-5.78125 -2.79218,-1.79497 -2.96875,-8.76753 -2.96875,-10.5625 0,-1.79497 3.57266,-4.38516 4.96875,-5.78125 1.39609,-1.39609 2.38974,-2.20782 3.1875,-5 0.79777,-2.79218 3.41184,-5.5874 5.40625,-7.78125 1.99441,-2.19386 4.31777,-1.93089 6.78125,-3.375 3.34076,-1.95838 2.79978,-2.39917 0.59375,-4.78125 -4.03272,-4.35454 -10.90974,-5.36962 -16.96875,-1.8125 -2.58821,1.51948 -8.80174,-3.22565 -15.34375,-3.28125 z M 92.729031,173.3596 c -1.62614,0.18884 -3.13914,2.25206 -8.1875,8.5625 -7.17989,8.97486 -8.15904,21.95248 -9.15625,29.53125 -0.99721,7.57877 -0.59832,23.71799 0,27.90625 0.59833,4.18827 2.19589,6.19944 5.1875,6 2.99162,-0.19944 5.37322,-1.6095 6.96875,-5 1.59553,-3.3905 -0.19207,-9.95427 0.40625,-15.9375 0.59833,-5.98324 1.98628,-15.55081 3.78125,-22.53125 1.79497,-6.98045 6.594758,-10.38059 9.187499,-12.375 2.59273,-1.99441 4.18013,-2.19868 3.78125,-6.1875 -0.39888,-3.98883 -5.941501,-7.9141 -9.593749,-9.375 -0.85362,-0.34145 -1.4724,-0.57647 -2.0625,-0.59375 -0.11064,-0.003 -0.20409,-0.0126 -0.3125,0 z m 235.812509,0 c -0.5901,0.0173 -1.20888,0.2523 -2.0625,0.59375 -3.65225,1.4609 -9.19487,5.38617 -9.59375,9.375 -0.39888,3.98882 1.18852,4.19309 3.78125,6.1875 2.59274,1.99441 7.39253,5.39455 9.1875,12.375 1.79497,6.98044 3.18292,16.54801 3.78125,22.53125 0.59832,5.98323 -1.18928,12.547 0.40625,15.9375 1.59553,3.3905 3.97713,4.80056 6.96875,5 2.99161,0.19944 4.58917,-1.81173 5.1875,-6 0.59832,-4.18826 0.99721,-20.32748 0,-27.90625 -0.99721,-7.57877 -1.97636,-20.55639 -9.15625,-29.53125 -5.38492,-6.73114 -6.7297,-8.6143 -8.5,-8.5625 z m -277.687509,3.78125 c -1.838759,0 -2.214176,1.99364 -2.8125,4.1875 -0.598323,2.19385 -0.576221,3.99085 1.21875,5.1875 1.794972,1.19665 5.157263,2.60112 7.75,3 2.592737,0.39888 8.774896,0.38694 10.96875,0.1875 2.193855,-0.19944 3.8153,0.61941 4.8125,-1.375 0.99721,-1.99441 1.19487,-3.41184 1.59375,-5.40625 0.39889,-1.99442 -0.79878,-2.78125 -2.59375,-2.78125 -1.794974,0 -9.582821,-0.80056 -12.375,-1 -2.792178,-0.19944 -5.5247,-2 -8.5625,-2 z m 319.875009,0 c -3.0378,0 -5.77032,1.80056 -8.5625,2 -2.79218,0.19944 -10.58003,1 -12.375,1 -1.79497,0 -2.99264,0.78683 -2.59375,2.78125 0.39888,1.99441 0.59654,3.41184 1.59375,5.40625 0.9972,1.99441 2.61864,1.17556 4.8125,1.375 2.19385,0.19944 8.37601,0.21138 10.96875,-0.1875 2.59274,-0.39888 5.95503,-1.80335 7.75,-3 1.79497,-1.19665 1.81707,-2.99365 1.21875,-5.1875 -0.59833,-2.19386 -0.97374,-4.1875 -2.8125,-4.1875 z M 27.541531,193.3596 c -0.60183,0.0456 -1.245426,0.30126 -1.84375,0.75 -1.59553,1.19665 -4.568087,0.59375 -6.5625,0.59375 -1.994413,0 -6.181146,-0.80234 -8.375,0.59375 -2.1938567,1.39609 -7.3732167,4.17378 -8.9687467,5.96875 -1.59553,1.79498 -0.59553,3.61306 1,3.8125 1.59553,0.19944 2.58104,-0.19843 6.96875,2.59375 4.3877057,2.79217 5.3742287,4.17758 9.5624967,9.5625 4.188267,5.38491 7.78963,16.95528 10.78125,25.53125 2.991619,8.57598 7.380587,22.73551 9.375,28.71875 1.994413,5.98324 9.770322,16.76295 12.5625,19.15625 2.792179,2.39329 3.092011,0.0164 1.59375,-3.8125 -2.112617,-5.39891 -4.384148,-22.73272 -3.1875,-27.71875 1.196648,-4.98603 8.364072,-8.76474 11.15625,-9.5625 2.792178,-0.79777 2.398882,-4.98907 2,-7.78125 -0.398883,-2.79218 -3.176572,-4.97433 -5.96875,-6.96875 -2.792178,-1.99441 -3.803352,-0.0175 -5,-1.8125 -1.196647,-1.79497 0.40447,-4.99364 2,-7.1875 1.595531,-2.19385 0.997207,-4.17098 0,-4.96875 -0.997206,-0.79776 -2.992632,-2.58739 -2.59375,-4.78125 0.398883,-2.19385 0.192074,-6.99186 -0.40625,-10.78125 -0.598324,-3.78938 -3.18572,-4.38415 -4.78125,-3.1875 -1.595531,1.19665 -6.774895,1.40168 -8.96875,2 -2.193854,0.59833 -2.209602,0.99441 -3.40625,-1 -1.196648,-1.99442 -3.377794,-6.39252 -4.375,-8.1875 -0.623254,-1.12186 -1.559451,-1.60721 -2.5625,-1.53125 z m 366.125009,0 c -0.85968,0.0574 -1.64216,0.54962 -2.1875,1.53125 -0.99721,1.79498 -3.17835,6.19308 -4.375,8.1875 -1.19665,1.99441 -1.2124,1.59833 -3.40625,1 -2.19386,-0.59832 -7.37322,-0.80335 -8.96875,-2 -1.59553,-1.19665 -4.18293,-0.60188 -4.78125,3.1875 -0.59833,3.78939 -0.80513,8.5874 -0.40625,10.78125 0.39888,2.19386 -1.59655,3.98349 -2.59375,4.78125 -0.99721,0.79777 -1.59553,2.7749 0,4.96875 1.59553,2.19386 3.19665,5.39253 2,7.1875 -1.19665,1.795 -2.20782,-0.18191 -5,1.8125 -2.79218,1.99442 -5.56987,4.17657 -5.96875,6.96875 -0.39888,2.79218 -0.79218,6.98348 2,7.78125 2.79218,0.79776 9.9596,4.57647 11.15625,9.5625 1.19665,4.98603 -1.07488,22.31984 -3.1875,27.71875 -1.49826,3.8289 -1.19843,6.20579 1.59375,3.8125 2.79218,-2.3933 10.56809,-13.17301 12.5625,-19.15625 1.99441,-5.98324 6.38338,-20.14277 9.375,-28.71875 2.99162,-8.57597 6.59298,-20.14634 10.78125,-25.53125 4.18827,-5.38492 5.17479,-6.77033 9.5625,-9.5625 4.38771,-2.79218 5.37322,-2.39431 6.96875,-2.59375 1.59553,-0.19944 2.59553,-2.01752 1,-3.8125 -1.59553,-1.79497 -6.7749,-4.57266 -8.96875,-5.96875 -2.19386,-1.39609 -6.38059,-0.59375 -8.375,-0.59375 -1.99441,0 -4.96697,0.6029 -6.5625,-0.59375 -0.59833,-0.44874 -1.24192,-0.7044 -1.84375,-0.75 -0.12538,-0.01 -0.25219,-0.008 -0.375,0 z m -329.468759,4.125 c -2.313116,0 -4.1875,1.91306 -4.1875,4.28125 0,2.36819 1.874384,4.3125 4.1875,4.3125 2.313116,0 4.1875,-1.94431 4.1875,-4.3125 0,-2.36819 -1.874384,-4.28125 -4.1875,-4.28125 z m 110.718749,0 c -0.61016,0 -1.14455,0.39523 -1.78125,1.5625 -1.27338,2.33453 -2.125,4.0209 -2.125,5.71875 0,1.69784 -0.20841,3.19402 -1.90625,3.40625 -1.69785,0.21223 -6.57172,2.10814 -8.90625,3.59375 -2.33454,1.48562 -5.3125,4.875 -5.3125,4.875 -4.24462,4.66907 -6.16411,10.20975 -7.4375,12.96875 -1.27338,2.759 -1.05329,5.29294 1.28125,4.65625 2.33453,-0.63669 8.91681,-4.44268 12.3125,-3.59375 3.39569,0.84892 4.86352,-0.87231 10.59375,1.25 5.73023,2.12231 8.70189,2.56385 10.1875,3.625 1.48562,1.06116 2.12635,0.82937 3.1875,-0.65625 1.06116,-1.48561 4.89456,-12.07688 5.53125,-13.5625 0.6367,-1.48561 0.84893,-2.77743 0,-4.6875 -0.84892,-1.91008 -3.1785,-5.70592 -5.9375,-10.375 -2.759,-4.66908 -5.52743,-7.42581 -7.4375,-8.0625 -0.95504,-0.31834 -1.63984,-0.71875 -2.25,-0.71875 z m 71.75001,0 c -0.61016,0 -1.29496,0.40041 -2.25,0.71875 -1.91007,0.63669 -4.6785,3.39342 -7.4375,8.0625 -2.759,4.66908 -5.08858,8.46492 -5.9375,10.375 -0.84893,1.91007 -0.6367,3.20189 0,4.6875 0.63669,1.48562 4.47009,12.07689 5.53125,13.5625 1.06115,1.48562 1.70188,1.71741 3.1875,0.65625 1.48561,-1.06115 4.45727,-1.50269 10.1875,-3.625 5.73023,-2.12231 7.19806,-0.40108 10.59375,-1.25 3.39569,-0.84893 9.97797,2.95706 12.3125,3.59375 2.33454,0.63669 2.55463,-1.89725 1.28125,-4.65625 -1.27339,-2.759 -3.19288,-8.29968 -7.4375,-12.96875 0,0 -2.97796,-3.38938 -5.3125,-4.875 -2.33453,-1.48561 -7.2084,-3.38152 -8.90625,-3.59375 -1.69784,-0.21223 -1.90625,-1.70841 -1.90625,-3.40625 0,-1.69785 -0.85162,-3.38422 -2.125,-5.71875 -0.6367,-1.16727 -1.17109,-1.5625 -1.78125,-1.5625 z m 110.71875,0 c -2.31312,0 -4.1875,1.91306 -4.1875,4.28125 0,2.36819 1.87438,4.3125 4.1875,4.3125 2.31311,0 4.1875,-1.94431 4.1875,-4.3125 0,-2.36819 -1.87439,-4.28125 -4.1875,-4.28125 z M 64.104031,218.82835 c -1.387841,0 -2.5,1.11216 -2.5,2.5 l 0,3.78125 c 0,1.38784 1.112159,2.5 2.5,2.5 l 2.375,0 c 1.387841,0 2.5,-1.11216 2.5,-2.5 l 0,-3.78125 c 0,-1.38784 -1.112159,-2.5 -2.5,-2.5 l -2.375,0 z m 291.000009,0 c -1.38784,0 -2.5,1.11216 -2.5,2.5 l 0,3.78125 c 0,1.38784 1.11216,2.5 2.5,2.5 l 2.375,0 c 1.38784,0 2.5,-1.11216 2.5,-2.5 l 0,-3.78125 c 0,-1.38784 -1.11216,-2.5 -2.5,-2.5 l -2.375,0 z m -253.21876,10.4375 c -0.69921,0.0136 -1.43959,0.53404 -2.187501,1.53125 -1.19665,1.59553 -4.365848,6.19131 -5.562498,9.78125 -1.19664,3.58994 -2.62042,8.9624 -3.21875,11.15625 -0.59832,2.19386 0.0064,2.38237 -2.1875,2.78125 -2.19386,0.39888 -3.58461,0.20681 -4.78125,0.40625 -1.19665,0.19945 -2.6029,1.58739 -1.40625,3.78125 1.19665,2.19385 6.18621,16.75964 21.343749,29.125 15.15754,12.36536 30.9131,17.77388 42.28125,17.375 11.36816,-0.39888 16.75,-5 16.75,-5 1.59553,-1.59553 2.40981,-4.00458 -0.78125,-3.40625 -3.19107,0.59832 -3.80639,2.00457 -12.78125,1.40625 -8.97486,-0.59833 -20.5353,-1.59958 -30.90625,-10.375 -10.37095,-8.77542 -12.55513,-17.55259 -12.15625,-22.9375 0.39888,-5.38492 2.00482,-9.75 8.1875,-9.75 6.18268,0 4.76753,1.375 6.5625,1.375 1.79497,0 1.5846,-1.37779 2.78125,-2.375 1.19664,-0.99721 5.79776,-7.78327 5,-12.96875 -0.79777,-5.18547 -3.99924,-8.38516 -8.1875,-9.78125 -4.18827,-1.39609 -6.37602,-1.39609 -8.96875,0 -2.59274,1.39609 -2.99822,2.58359 -4.59375,1.1875 -1.59553,-1.39609 -2.97154,-1.78404 -3.96875,-2.78125 -0.37395,-0.37395 -0.79922,-0.53943 -1.21875,-0.53125 z m 217.81251,0 c -0.41953,-0.008 -0.8448,0.1573 -1.21875,0.53125 -0.99721,0.99721 -2.37322,1.38516 -3.96875,2.78125 -1.59553,1.39609 -2.00101,0.20859 -4.59375,-1.1875 -2.59273,-1.39609 -4.78048,-1.39609 -8.96875,0 -4.18826,1.39609 -7.38973,4.59578 -8.1875,9.78125 -0.79776,5.18548 3.80336,11.97154 5,12.96875 1.19665,0.99721 0.98628,2.375 2.78125,2.375 1.79497,0 0.37982,-1.375 6.5625,-1.375 6.18268,0 7.78862,4.36508 8.1875,9.75 0.39888,5.38491 -1.7853,14.16208 -12.15625,22.9375 -10.37095,8.77542 -21.93139,9.77667 -30.90625,10.375 -8.97486,0.59832 -9.59018,-0.80793 -12.78125,-1.40625 -3.19106,-0.59833 -2.37678,1.81072 -0.78125,3.40625 0,0 5.38184,4.60112 16.75,5 11.36815,0.39888 27.12371,-5.00964 42.28125,-17.375 15.15754,-12.36536 20.1471,-26.93115 21.34375,-29.125 1.19665,-2.19386 -0.2096,-3.5818 -1.40625,-3.78125 -1.19664,-0.19944 -2.58739,-0.007 -4.78125,-0.40625 -2.1935,-0.39888 -1.58918,-0.58739 -2.1875,-2.78125 -0.59833,-2.19385 -2.02211,-7.56631 -3.21875,-11.15625 -1.19665,-3.58994 -4.36585,-8.18572 -5.5625,-9.78125 -0.74791,-0.99721 -1.48829,-1.51765 -2.1875,-1.53125 z m -161.68751,15.25 c -1.26575,0.0732 -2.81461,0.54803 -5.25,1.4375 -11.01812,4.02412 -21.53216,15.13862 -19.9375,28.71875 1.04128,8.86754 8.67009,16.62222 18.53125,13.96875 8.105,-2.18092 11.53222,-11.9315 8.59375,-19.75 -1.06872,-2.84359 0.79888,-2.57495 2.59375,-2.59375 5.38807,-0.0564 3.47361,-8.53534 2.78125,-12.375 -0.59833,-3.98883 -1.22719,-6.80814 -3.78125,-8.375 -1.27703,-0.78343 -2.2655,-1.10446 -3.53125,-1.03125 z m 105.56251,0 c -1.26575,-0.0732 -2.25422,0.24782 -3.53125,1.03125 -2.55406,1.56686 -3.18292,4.38617 -3.78125,8.375 -0.69236,3.83966 -2.60682,12.3186 2.78125,12.375 1.79487,0.0188 3.66247,-0.24984 2.59375,2.59375 -2.93847,7.8185 0.48875,17.56908 8.59375,19.75 9.86116,2.65347 17.48997,-5.10121 18.53125,-13.96875 1.59466,-13.58013 -8.91938,-24.69463 -19.9375,-28.71875 -2.43539,-0.88947 -3.98425,-1.3643 -5.25,-1.4375 z m -90.50001,2.03125 c -1.17673,0.0677 -1.15625,1.54159 -1.15625,3 0,1.79497 0.59375,13.16183 0.59375,15.15625 0,1.99441 0.60391,2.5846 2,3.78125 1.39609,1.19665 7.76474,5.98652 8.5625,14.5625 0.79777,8.57597 -0.79699,15.1748 -4.1875,19.5625 -3.3905,4.38771 -9.76397,10.5442 -14.75,12.9375 -4.98603,2.39329 -10.39532,4.21418 -13.1875,4.8125 -2.79218,0.59832 -2.99264,2.99365 -2.59375,5.1875 0.39888,2.19386 1,6.15625 1,6.15625 0.99721,3.39051 1.6067,4.38694 4,4.1875 2.39329,-0.19944 17.74846,-4.9662 26.125,-10.75 8.37653,-5.7838 16.14532,-16.16945 18.9375,-25.34375 2.79218,-9.1743 3.41438,-21.33942 -0.375,-28.71875 -3.78939,-7.37933 -7.40091,-13.94867 -12.1875,-17.9375 -4.78659,-3.98882 -9.55614,-5.57723 -11.75,-6.375 -0.41135,-0.14958 -0.7597,-0.23438 -1.03125,-0.21875 z m 75.43751,0 c -0.27155,-0.0156 -0.6199,0.0692 -1.03125,0.21875 -2.19386,0.79777 -6.96341,2.38618 -11.75,6.375 -4.78659,3.98883 -8.39811,10.55817 -12.1875,17.9375 -3.78938,7.37933 -3.16718,19.54445 -0.375,28.71875 2.79218,9.1743 10.56097,19.55995 18.9375,25.34375 8.37654,5.7838 23.73171,10.55056 26.125,10.75 2.3933,0.19944 3.00279,-0.79699 4,-4.1875 0,0 0.60112,-3.96239 1,-6.15625 0.39889,-2.19385 0.19843,-4.58918 -2.59375,-5.1875 -2.79218,-0.59832 -8.20147,-2.41921 -13.1875,-4.8125 -4.98603,-2.3933 -11.3595,-8.54979 -14.75,-12.9375 -3.39051,-4.3877 -4.98527,-10.98653 -4.1875,-19.5625 0.79776,-8.57598 7.16641,-13.36585 8.5625,-14.5625 1.39609,-1.19665 2,-1.78684 2,-3.78125 0,-1.99442 0.59375,-13.36128 0.59375,-15.15625 0,-1.45841 0.0205,-2.9323 -1.15625,-3 z m -175.468759,9.40625 c -0.62326,0.0748 -1.37183,0.47015 -2.46875,0.96875 0,0 -1.774896,0.79598 -3.96875,1.59375 -2.193854,0.79776 -3.397102,0.59375 -4.59375,0.59375 -1.196647,0 -2.598324,1.40447 -2,3 0.598324,1.59553 2.401676,3.38516 3,4.78125 0.598324,1.39609 1.990852,0.79777 3.1875,0 1.196647,-0.79776 7.96697,-2.79599 9.5625,-3.59375 1.59553,-0.79777 2.39152,-1.7721 1.59375,-2.96875 -0.79776,-1.19665 -1.3971,-1.81072 -2.59375,-3.40625 -0.59833,-0.79777 -1.09549,-1.04354 -1.71875,-0.96875 z m 275.062509,0 c -0.43081,0.075 -0.8325,0.37042 -1.28125,0.96875 -1.19665,1.59553 -1.79599,2.2096 -2.59375,3.40625 -0.79777,1.19665 -0.002,2.17098 1.59375,2.96875 1.59553,0.79776 8.36585,2.79599 9.5625,3.59375 1.19665,0.79777 2.58917,1.39609 3.1875,0 0.59832,-1.39609 2.40167,-3.18572 3,-4.78125 0.59832,-1.59553 -0.80335,-3 -2,-3 -1.19665,0 -2.3999,0.20401 -4.59375,-0.59375 -2.19386,-0.79777 -3.96875,-1.59375 -3.96875,-1.59375 -1.09692,-0.4986 -1.84549,-0.89395 -2.46875,-0.96875 -0.15582,-0.0187 -0.2939,-0.025 -0.4375,0 z M 76.479031,269.2971 c -1.81745,0 -3.3125,1.4638 -3.3125,3.28125 0,1.81745 1.49505,3.28125 3.3125,3.28125 1.81745,0 3.28125,-1.4638 3.28125,-3.28125 0,-1.81745 -1.4638,-3.28125 -3.28125,-3.28125 z m 268.625009,0 c -1.81745,0 -3.28125,1.4638 -3.28125,3.28125 0,1.81745 1.4638,3.28125 3.28125,3.28125 1.81745,0 3.3125,-1.4638 3.3125,-3.28125 0,-1.81745 -1.49505,-3.28125 -3.3125,-3.28125 z m -319.656259,3.84375 c -1.271438,0.0561 -1.526676,1.18502 -2.125,2.53125 -0.797766,1.79497 1.008135,2.19944 -2.78125,2 -3.789384,-0.19944 -5.611278,0.77668 -7.40625,1.375 -1.794971,0.59832 -2.375,1.40625 -2.375,1.40625 -1.1966467,1.19665 -1.3960867,2.39711 0,3.59375 1.396089,1.19665 1.992633,2.18115 1.59375,4.375 -0.398882,2.19386 -0.794972,5.38516 1,6.78125 1.794971,1.39609 2.794205,4.40625 5.1875,4.40625 2.393296,0 3.376013,-2.81072 5.96875,-4.40625 2.592737,-1.59553 4.405483,-4.38415 8.59375,-3.1875 4.188267,1.19664 10.163617,2.79598 10.5625,3.59375 0.398883,0.79776 4.794972,1.61662 3,-1.375 -1.794971,-2.99162 -6.792424,-10.17937 -10.78125,-13.96875 -3.988826,-3.78939 -5.989072,-5.78404 -8.78125,-6.78125 -0.698045,-0.2493 -1.232437,-0.36245 -1.65625,-0.34375 z m 370.687509,0 c -0.42381,-0.0187 -0.95821,0.0944 -1.65625,0.34375 -2.79218,0.99721 -4.79243,2.99186 -8.78125,6.78125 -3.98883,3.78938 -8.98628,10.97713 -10.78125,13.96875 -1.79497,2.99162 2.60112,2.17276 3,1.375 0.39888,-0.79777 6.37423,-2.39711 10.5625,-3.59375 4.18827,-1.19665 6.00101,1.59197 8.59375,3.1875 2.59274,1.59553 3.57545,4.40625 5.96875,4.40625 2.39329,0 3.39253,-3.01016 5.1875,-4.40625 1.79497,-1.39609 1.39888,-4.58739 1,-6.78125 -0.39888,-2.19385 0.19766,-3.17835 1.59375,-4.375 1.39609,-1.19664 1.19665,-2.3971 0,-3.59375 0,0 -0.58003,-0.80793 -2.375,-1.40625 -1.79497,-0.59832 -3.61687,-1.57444 -7.40625,-1.375 -3.78939,0.19944 -1.98349,-0.20503 -2.78125,-2 -0.59833,-1.34623 -0.85356,-2.47515 -2.125,-2.53125 z M 86.447781,279.6721 c -0.66101,0.0551 -1.31667,0.30169 -1.875,0.75 l -4.96875,4 c -1.48887,1.19549 -1.72674,3.35488 -0.53125,4.84375 l 0.8125,1 c 1.19549,1.48887 3.35488,1.72674 4.84375,0.53125 l 4.96875,-4 c 1.48887,-1.19549 1.72674,-3.35488 0.53125,-4.84375 l -0.8125,-1 c -0.74718,-0.93054 -1.86706,-1.37307 -2.96875,-1.28125 z m 248.687509,0 c -1.10169,-0.0918 -2.22157,0.35071 -2.96875,1.28125 l -0.8125,1 c -1.19549,1.48887 -0.95762,3.64826 0.53125,4.84375 l 4.96875,4 c 1.48887,1.19549 3.64826,0.95762 4.84375,-0.53125 l 0.8125,-1 c 1.19549,-1.48887 0.95762,-3.64826 -0.53125,-4.84375 l -4.96875,-4 c -0.55833,-0.44831 -1.21399,-0.6949 -1.875,-0.75 z m -270.593759,0.0937 c -0.08478,-0.007 -0.173091,0.0131 -0.25,0.0312 -0.478542,0.11282 -0.787744,0.69644 -0.875,1.65625 -0.199441,2.19385 1.599337,5.1758 3.59375,12.15625 1.994413,6.98044 12.7632,21.55081 21.9375,28.53125 9.174298,6.98045 21.938509,10.77667 24.531249,11.375 2.59274,0.59832 4.5625,0.9817 4.5625,3.375 0,2.39329 -0.59375,5.39176 -0.59375,11.375 0,5.98324 7.18394,7.57444 10.375,7.375 3.19106,-0.19944 6.59375,-2.7815 6.59375,-9.5625 0,0 0.375,-2.79242 0.375,-6.78125 0,-3.98882 3.80614,-2.2096 6,-3.40625 2.19385,-1.19665 1.19207,-3.17937 0.59375,-6.96875 -0.59832,-3.78939 -0.40548,-8.18471 -4.59375,-7.1875 -4.18827,0.99721 -21.51599,-3.18851 -31.6875,-5.78125 -10.171499,-2.59274 -17.564529,-9.76854 -22.749999,-14.15625 -5.18548,-4.38771 -13.767528,-17.14532 -15.5625,-19.9375 -0.883462,-1.37428 -1.656522,-2.04753 -2.25,-2.09375 z m 292.500009,0 c -0.59348,0.0462 -1.36654,0.71947 -2.25,2.09375 -1.79497,2.79218 -10.37702,15.54979 -15.5625,19.9375 -5.18547,4.38771 -12.5785,11.56351 -22.75,14.15625 -10.17151,2.59274 -27.49923,6.77846 -31.6875,5.78125 -4.18827,-0.99721 -3.99543,3.39811 -4.59375,7.1875 -0.59832,3.78938 -1.6001,5.7721 0.59375,6.96875 2.19386,1.19665 6,-0.58257 6,3.40625 0,3.98883 0.375,6.78125 0.375,6.78125 0,6.781 3.40269,9.36306 6.59375,9.5625 3.19106,0.19944 10.375,-1.39176 10.375,-7.375 0,-5.98324 -0.59375,-8.98171 -0.59375,-11.375 0,-2.3933 1.96976,-2.77668 4.5625,-3.375 2.59274,-0.59833 15.35695,-4.39455 24.53125,-11.375 9.1743,-6.98044 19.94309,-21.55081 21.9375,-28.53125 1.99441,-6.98045 3.79319,-9.9624 3.59375,-12.15625 -0.0873,-0.95981 -0.39646,-1.54343 -0.875,-1.65625 -0.0769,-0.0181 -0.16522,-0.0378 -0.25,-0.0312 z m -146.25,4 c -1.53331,0 -2.78126,1.24795 -2.78126,2.78125 0,1.5333 1.24795,2.78125 2.78126,2.78125 1.5333,0 2.78125,-1.24795 2.78125,-2.78125 0,-1.5333 -1.24795,-2.78125 -2.78125,-2.78125 z m -115.375009,8.46875 c -1.59715,0 -2.90625,1.27785 -2.90625,2.875 0,1.59715 1.3091,2.90625 2.90625,2.90625 1.59715,0 2.906248,-1.3091 2.906248,-2.90625 0,-1.59715 -1.309098,-2.875 -2.906248,-2.875 z m 230.750009,0 c -1.59715,0 -2.90625,1.27785 -2.90625,2.875 0,1.59715 1.3091,2.90625 2.90625,2.90625 1.59715,0 2.90625,-1.3091 2.90625,-2.90625 0,-1.59715 -1.3091,-2.875 -2.90625,-2.875 z m -220.03126,6 c -0.63734,0.0621 -1.24673,0.3703 -1.6875,0.90625 l -3.375,4.125 c -0.88155,1.0719 -0.72815,2.61845 0.34375,3.5 l 1.0625,0.875 c 1.0719,0.88155 2.6497,0.72815 3.53125,-0.34375 l 3.34375,-4.09375 c 0.88155,-1.0719 0.72815,-2.6497 -0.34375,-3.53125 l -1.03125,-0.875 c -0.53595,-0.44077 -1.20641,-0.62461 -1.84375,-0.5625 z m 208.84376,0 c -0.48257,0.0462 -0.97304,0.23192 -1.375,0.5625 l -1.03125,0.875 c -1.0719,0.88155 -1.2253,2.45935 -0.34375,3.53125 l 3.34375,4.09375 c 0.88155,1.0719 2.45935,1.2253 3.53125,0.34375 l 1.0625,-0.875 c 1.0719,-0.88155 1.2253,-2.4281 0.34375,-3.5 l -3.375,-4.125 c -0.44077,-0.53595 -1.05016,-0.84415 -1.6875,-0.90625 -0.15933,-0.0155 -0.30789,-0.0154 -0.46875,0 z m -196.81251,6.3438 c -1.81745,0 -3.3125,1.38645 -3.3125,3.09375 0,1.7073 1.49505,3.09375 3.3125,3.09375 1.81745,0 3.28125,-1.38645 3.28125,-3.09375 0,-1.7073 -1.4638,-3.09375 -3.28125,-3.09375 z m 185.25001,0 c -1.81745,0 -3.28125,1.38645 -3.28125,3.09375 0,1.7073 1.4638,3.09375 3.28125,3.09375 1.81745,0 3.3125,-1.38645 3.3125,-3.09375 0,-1.7073 -1.49505,-3.09375 -3.3125,-3.09375 z m -95.84376,1.75 c -1.4684,0.0562 -1.83549,1.11638 -2.34375,2.03125 -0.75035,1.35063 -1.19228,1.95978 -4.34375,7.8125 -3.15146,5.85272 -9.92887,11.24791 -15.03125,15.75 -5.10237,4.50209 -25.4993,10.21222 -27,10.8125 -1.5007,0.60028 -1.65042,1.66173 -0.75,3.3125 0.90042,1.65077 6.89075,6.14319 13.34375,7.34375 6.453,1.20056 17.72423,0.59375 19.375,0.59375 1.65076,0 2.41208,-1.03848 3.3125,1.0625 0.90042,2.10098 8.82999,24.4543 11.53125,28.65625 2.70125,4.20196 5.12501,3.75 5.12501,3.75 0,0 2.42375,0.45196 5.125,-3.75 2.70126,-4.20195 10.63083,-26.55527 11.53125,-28.65625 0.90042,-2.10098 1.66174,-1.0625 3.3125,-1.0625 1.65077,0 12.922,0.60681 19.375,-0.59375 6.453,-1.20056 12.44333,-5.69298 13.34375,-7.34375 0.90042,-1.65077 0.7507,-2.71222 -0.75,-3.3125 -1.5007,-0.60028 -21.89763,-6.31041 -27,-10.8125 -5.10238,-4.50209 -11.87979,-9.89728 -15.03125,-15.75 -3.15147,-5.85272 -3.5934,-6.46187 -4.34375,-7.8125 -0.50826,-0.91487 -0.87535,-1.97505 -2.34375,-2.03125 -0.74266,-0.0284 -1.71439,0 -3.21875,0 -1.50437,0 -2.4761,-0.0284 -3.21876,0 z" id="path2996" style="fill:#0065ff;fill-opacity:1;stroke:none"/>
    </g>
  </g>
  <metadata>
    <rdf:RDF>
      <cc:Work>
        <dc:format>image/svg+xml</dc:format>
        <dc:type rdf:resource="http://purl.org/dc/dcmitype/StillImage"/>
        <cc:license rdf:resource="http://creativecommons.org/licenses/publicdomain/"/>
        <dc:publisher>
          <cc:Agent rdf:about="http://openclipart.org/">
            <dc:title>Open Clip Art Library</dc:title>
          </cc:Agent>
        </dc:publisher>
        <dc:title>Victorian Background Ornament</dc:title>
        <dc:date>2010-11-17T21:42:14</dc:date>
        <dc:description>Repetitive Victorian ornament. It can be used as a background.</dc:description>
        <dc:source>http://openclipart.org/detail/96355/victorian-background-ornament-by-kuba</dc:source>
        <dc:creator>
          <cc:Agent>
            <dc:title>kuba</dc:title>
          </cc:Agent>
        </dc:creator>
        <dc:subject>
          <rdf:Bag>
            <rdf:li>background</rdf:li>
            <rdf:li>blue</rdf:li>
            <rdf:li>clip art</rdf:li>
            <rdf:li>clipart</rdf:li>
            <rdf:li>damask</rdf:li>
            <rdf:li>decoration</rdf:li>
            <rdf:li>design</rdf:li>
            <rdf:li>history</rdf:li>
            <rdf:li>horizontal</rdf:li>
            <rdf:li>motif</rdf:li>
            <rdf:li>ornament</rdf:li>
            <rdf:li>pattern</rdf:li>
            <rdf:li>repeat</rdf:li>
            <rdf:li>tiles</rdf:li>
            <rdf:li>vertical</rdf:li>
            <rdf:li>victorian</rdf:li>
            <rdf:li>vintage</rdf:li>
          </rdf:Bag>
        </dc:subject>
      </cc:Work>
      <cc:License rdf:about="http://creativecommons.org/licenses/publicdomain/">
        <cc:permits rdf:resource="http://creativecommons.org/ns#Reproduction"/>
        <cc:permits rdf:resource="http://creativecommons.org/ns#Distribution"/>
        <cc:permits rdf:resource="http://creativecommons.org/ns#DerivativeWorks"/>
      </cc:License>
    </rdf:RDF>
  </metadata>
</svg>
