<svg xmlns="http://www.w3.org/2000/svg" width="75" height="75" viewBox="0 0 75 75">
    <g id="Group_1274" data-name="Group 1274" transform="translate(-80 -397)">
        <circle id="Ellipse_358" data-name="Ellipse 358" cx="37.5" cy="37.5" r="37.5"
            transform="translate(80 397)" fill="#006630" />
        <path id="Path_2047" data-name="Path 2047"
            d="M484.793,1566.85c1.479-.669,3.023-1.167,4.545-1.714a32.309,32.309,0,0,1,7.063-1.465,4.693,4.693,0,0,0,.839-.135,1.167,1.167,0,0,0,.846-.718q.768-1.974,1.415-3.976a.8.8,0,0,1,1.4-.341.653.653,0,0,0,.661.135c.3-.043.142-.32.164-.491.064-.455.107-.918.171-1.522a12.193,12.193,0,0,0,18.152-.021c.071.626.114,1.117.178,1.607.021.156-.107.4.164.427a.763.763,0,0,0,.626-.092c.726-.583,1.181-.427,1.465.42.455,1.33.96,2.646,1.437,3.969.171.469.569.562.989.612a40.348,40.348,0,0,1,6.594,1.223,45.989,45.989,0,0,1,5.655,2.077c-.028.5-.441.747-.761,1.024a39.9,39.9,0,0,1-6.515,4.7,38.921,38.921,0,0,1-12.938,4.559c-1.06.178-2.141.114-3.194.285h-.4c-.078-.085-.185-.064-.284-.071h-.228c-.1.007-.206-.021-.284.071h-.661a.723.723,0,0,0-.661,0h-.661a1.013,1.013,0,0,0-.789,0h-.526c-.078-.085-.185-.064-.284-.071h-.228c-.1.007-.206-.021-.284.071H507.8c-1.06-.185-2.134-.15-3.194-.334a37.879,37.879,0,0,1-18.692-8.813,9.338,9.338,0,0,1-.846-.733C484.9,1567.34,484.7,1567.155,484.793,1566.85Z"
            transform="translate(-393.517 -1105.518)" fill="#000000" />
        <path id="Path_2058" data-name="Path 2058"
            d="M654.876,1248.221a13.05,13.05,0,0,1-6.544-1.885,9.75,9.75,0,0,1-2.923-3.393,10.043,10.043,0,0,1-1.138-4.979c-.021-.377-.057-.562-.512-.6-1.373-.114-1.792-1.295-2.248-2.29a18.756,18.756,0,0,1-1.437-6.387,3.972,3.972,0,0,1,.313-1.985.958.958,0,0,1,.676-.626c.42-.043.448-.228.42-.541-.014-.149,0-.306,0-.462a1.469,1.469,0,0,1,1.145-1.657,27.867,27.867,0,0,1,5.228-1.081c1.423-.249,2.859-.341,4.3-.469.512-.043,1.01.064,1.508.064,1.344.007,2.682-.021,4.026-.05a22.148,22.148,0,0,1,4.111.327c1.394.235,2.8.427,4.2.669a15.84,15.84,0,0,1,1.97.626c.918.285.989.982.989,1.757,0,.377-.135.761.526.868.583.1.7.775.8,1.309a8.588,8.588,0,0,1-.128,3.13,21.458,21.458,0,0,1-1.174,4.446,8.554,8.554,0,0,1-1.366,2.056,1.267,1.267,0,0,1-.989.292c-.384.021-.434.178-.455.519a12.4,12.4,0,0,1-.59,3.869,9.268,9.268,0,0,1-6.565,5.932A14.732,14.732,0,0,1,654.876,1248.221Z"
            transform="translate(-537.759 -794.586)" fill="#FFEBC2" />
        <path id="Path_2059" data-name="Path 2059"
            d="M682.67,997.973c.028,2.07-.036,4.133.128,6.2.071.91.028.9-.811.633a23.04,23.04,0,0,0-3.656-.9c-.3.1-.526-.128-.8-.156a12.934,12.934,0,0,0-2.9-.377,85.078,85.078,0,0,0-11.893,0,12.934,12.934,0,0,0-2.9.377c-.27.021-.5.256-.8.156a22.276,22.276,0,0,0-3.784.932c-.505.164-.775.2-.7-.469.206-2.02.021-4.054.192-6.067a10.358,10.358,0,0,1,1.736-4.844,13.674,13.674,0,0,1,6.75-5.093,14.591,14.591,0,0,1,6.146-.974,15.173,15.173,0,0,1,9.951,4.154,10.535,10.535,0,0,1,3.108,5.6.64.64,0,0,0,.093.164C682.812,997.461,682.514,997.766,682.67,997.973Z"
            transform="translate(-551.213 -576.786)" fill="#000000" />
    </g>
</svg>
