<svg xmlns="http://www.w3.org/2000/svg" width="75" height="75" viewBox="0 0 75 75">
    <g id="Group_1275" data-name="Group 1275" transform="translate(-221 -397)">
        <circle id="Ellipse_359" data-name="Ellipse 359" cx="37.5" cy="37.5" r="37.5"
            transform="translate(221 397)" fill="#D70081" />
        <path id="Path_2108" data-name="Path 2108"
            d="M13.5,0C20.956,0,27,8.73,27,19.5S20.956,39,13.5,39,0,30.27,0,19.5,6.044,0,13.5,0Z"
            transform="translate(245 418)" fill="#FFF3DB" />
        <path id="Subtraction_385" data-name="Subtraction 385"
            d="M27.206,58.147H26.68a.233.233,0,0,0-.189-.065h-.149a.232.232,0,0,0-.188.065h-.661a.728.728,0,0,0-.337-.086.738.738,0,0,0-.325.079H24.17a1.013,1.013,0,0,0-.79,0h-.527a.226.226,0,0,0-.186-.065h-.152a.229.229,0,0,0-.187.065h-.79a8.054,8.054,0,0,0-1.31-.118H20.2c-.268-.009-.545-.019-.815-.046A34.428,34.428,0,0,1,9.2,55.174,36.71,36.71,0,0,1,.7,50.06a2.567,2.567,0,0,1-.7-.775v-.136c.319-.9.651-1.829.944-2.645.455-1.268.926-2.578,1.375-3.878,1.5-4.355,2.731-8.313,3.755-12.1.607-2.249,1.169-4.55,1.713-6.776l0-.008c.184-.751.392-1.6.6-2.434.367-1.487.63-2.992.889-4.531.4-2.346.818-4.271,1.31-6.061A14.346,14.346,0,0,1,13.642,5.15,15.578,15.578,0,0,1,18.45,1.195,8.789,8.789,0,0,1,22.311.118l.173,0c.084,0,.165,0,.239,0A8.4,8.4,0,0,0,24.176,0h.4a4.071,4.071,0,0,0,1.093.119l.293,0h.052l.12,0h.114a8.693,8.693,0,0,1,3.631.8,14.244,14.244,0,0,1,3.126,2,17.617,17.617,0,0,1,3.721,4.26A13.715,13.715,0,0,1,38.4,11.1c.484,1.84.834,3.74,1.173,5.578.143.778.292,1.582.449,2.375.578,2.9,1.319,5.816,2.036,8.635l.081.32q.118.466.236.932c.925,3.659,2.1,7.576,3.705,12.326.151.445.3.9.448,1.337l.006.02v0a62.431,62.431,0,0,0,2.191,5.9c.345.767.3.96-.342,1.48a37.874,37.874,0,0,1-8.405,5.119,39.287,39.287,0,0,1-9.44,2.783,14.392,14.392,0,0,1-1.787.139h-.007C28.242,58.063,27.718,58.082,27.206,58.147ZM24.425,9.107a10.7,10.7,0,0,0-8.187,4.023,13.148,13.148,0,0,0-3.478,8.613c-.07,2.548-.033,4.834.114,6.991A11.431,11.431,0,0,0,15.6,35.521a38.651,38.651,0,0,0,2.819,2.86l0,0c.326.309.7.658,1.052,1a6.842,6.842,0,0,0,4.567,2.049c.177.009.339.014.495.014a6.012,6.012,0,0,0,3.851-1.209,30.621,30.621,0,0,0,5.3-5.228,10.319,10.319,0,0,0,1.771-3.428,18.408,18.408,0,0,0,.647-5.533,32.532,32.532,0,0,0-.15-6.075,8.474,8.474,0,0,0-.782-2.917,15.661,15.661,0,0,0-3.94-5.306A10.373,10.373,0,0,0,24.71,9.111C24.622,9.108,24.529,9.107,24.425,9.107Z"
            transform="translate(234.095 413.33)" fill="#000000" />
    </g>
</svg>
